<svg id="Layer_1" data-name="Layer 1" xmlns="http://www.w3.org/2000/svg" viewBox="0 0 312.45 380.22"><defs><style>.cls-1{fill:#d5d8d2;}.cls-2{fill:#ecedeb;}.cls-3{fill:#fc3;}.cls-4{fill:#fff;opacity:0.5;}.cls-5{fill:none;stroke:#e2ad27;stroke-linecap:round;stroke-miterlimit:10;stroke-width:10px;}.cls-6{fill:#f9f0d9;}.cls-10,.cls-7{fill:#41443e;}.cls-8{fill:#f492a6;}.cls-9{fill:#e2ad27;}.cls-10{opacity:0.05;}</style></defs><title>hoppieLogoTwo</title><path id="_Path_" data-name="&lt;Path&gt;" class="cls-1" d="M351.91,328.85H295.75V310h56.16a4.71,4.71,0,0,0,4.7-4.7V215.76a4.71,4.71,0,0,0-4.7-4.7H315.83V192.25h36.09a23.53,23.53,0,0,1,23.51,23.51v89.58A23.53,23.53,0,0,1,351.91,328.85Z" transform="translate(-88.11 -81.15)"/><path id="_Rectangle_" data-name="&lt;Rectangle&gt;" class="cls-2" d="M77.13,56.86h141A14.89,14.89,0,0,1,233,71.75V260.53a37.22,37.22,0,0,1-37.22,37.22H99.46a37.22,37.22,0,0,1-37.22-37.22V71.75A14.89,14.89,0,0,1,77.13,56.86Z"/><path id="_Rectangle_2" data-name="&lt;Rectangle&gt;" class="cls-3" d="M134.51,182.87H314.64A22.33,22.33,0,0,1,337,205.2v97.91a22.33,22.33,0,0,1-22.33,22.33H134.51a0,0,0,0,1,0,0V182.87A0,0,0,0,1,134.51,182.87Z" transform="translate(401.79 -62.73) rotate(90)"/><path id="_Path_2" data-name="&lt;Path&gt;" class="cls-4" d="M173.65,356.73V146.88a8.86,8.86,0,0,1,8.86-8.86H163.65a8.86,8.86,0,0,0-8.86,8.86V356.73a22.16,22.16,0,0,0,22.16,22.16h18.87A22.16,22.16,0,0,1,173.65,356.73Z" transform="translate(-88.11 -81.15)"/><line id="_Path_3" data-name="&lt;Path&gt;" class="cls-5" x1="147.63" y1="216.2" x2="147.63" y2="247.7"/><line id="_Path_4" data-name="&lt;Path&gt;" class="cls-5" x1="186.51" y1="216.2" x2="186.51" y2="247.7"/><line id="_Path_5" data-name="&lt;Path&gt;" class="cls-5" x1="108.75" y1="216.2" x2="108.75" y2="247.7"/><circle id="_Path_6" data-name="&lt;Path&gt;" class="cls-6" cx="76.34" cy="58.5" r="17.71"/><rect id="_Rectangle_3" data-name="&lt;Rectangle&gt;" class="cls-6" x="76.34" y="32.45" width="142.57" height="43.76"/><circle id="_Path_7" data-name="&lt;Path&gt;" class="cls-6" cx="94.31" cy="32.45" r="17.96"/><circle id="_Path_8" data-name="&lt;Path&gt;" class="cls-6" cx="131.05" cy="25.21" r="25.21"/><circle id="_Path_9" data-name="&lt;Path&gt;" class="cls-6" cx="166.5" cy="28.31" r="22.1"/><circle id="_Path_10" data-name="&lt;Path&gt;" class="cls-6" cx="181.49" cy="35.43" r="14.99"/><circle id="_Path_11" data-name="&lt;Path&gt;" class="cls-6" cx="203.93" cy="32.45" r="14.99"/><path id="_Path_12" data-name="&lt;Path&gt;" class="cls-7" d="M267.42,226.48c0,4.63,3.76,3.69,8.39,3.69s8.39,0.95,8.39-3.69A8.39,8.39,0,0,0,267.42,226.48Z" transform="translate(-88.11 -81.15)"/><circle id="_Path_13" data-name="&lt;Path&gt;" class="cls-6" cx="157.98" cy="127.17" r="11.13"/><rect id="_Rectangle_4" data-name="&lt;Rectangle&gt;" class="cls-6" x="146.85" y="67.92" width="22.25" height="59.25"/><path id="_Path_14" data-name="&lt;Path&gt;" class="cls-7" d="M204.06,226.48c0,4.63-3.76,3.69-8.39,3.69s-8.39.95-8.39-3.69A8.39,8.39,0,0,1,204.06,226.48Z" transform="translate(-88.11 -81.15)"/><path id="_Path_15" data-name="&lt;Path&gt;" class="cls-8" d="M254.61,247.3c0,5-8.45,18.48-18.87,18.48s-18.87-13.47-18.87-18.48,8.45-9.08,18.87-9.08S254.61,242.28,254.61,247.3Z" transform="translate(-88.11 -81.15)"/><circle id="_Path_16" data-name="&lt;Path&gt;" class="cls-9" cx="187.7" cy="164.56" r="6.29"/><circle id="_Path_17" data-name="&lt;Path&gt;" class="cls-9" cx="107.57" cy="164.56" r="6.29"/><path id="_Path_18" data-name="&lt;Path&gt;" class="cls-10" d="M312.27,138H263.33a8.86,8.86,0,0,1,8.86,8.86V356.73A22.16,22.16,0,0,1,250,378.89H299a22.16,22.16,0,0,0,22.16-22.16V146.88A8.86,8.86,0,0,0,312.27,138Z" transform="translate(-88.11 -81.15)"/><circle id="_Path_19" data-name="&lt;Path&gt;" class="cls-6" cx="218.92" cy="60.62" r="15.59"/><path id="_Path_20" data-name="&lt;Path&gt;" class="cls-6" d="M239.28,235.75a4.14,4.14,0,0,0-3.54,2.2,4.14,4.14,0,0,0-3.54-2.2,4.59,4.59,0,0,0,0,9.15,4.14,4.14,0,0,0,3.54-2.2,4.14,4.14,0,0,0,3.54,2.2A4.59,4.59,0,0,0,239.28,235.75Z" transform="translate(-88.11 -81.15)"/><path d="M140.46,370.62a1.38,1.38,0,0,1,1.41,1.41v62.13a1.37,1.37,0,0,1-1.41,1.32H122.89a1.34,1.34,0,0,1-1.32-1.32V413.1H108.41v21.05a1.37,1.37,0,0,1-1.41,1.32H89.42a1.42,1.42,0,0,1-1.32-1.32V372a1.43,1.43,0,0,1,1.32-1.41H107a1.38,1.38,0,0,1,1.41,1.41v24.53h13.16V372a1.37,1.37,0,0,1,1.32-1.41h17.58Z" transform="translate(-88.11 -81.15)"/><path d="M181.07,436.79c-20,0-33.37-13.54-33.37-33.74,0-20.4,13.35-33.93,33.37-33.93s33.37,13.54,33.37,33.93C214.44,423.26,201.09,436.79,181.07,436.79Zm0-48.69c-7.71,0-12.88,6-12.88,14.95S173.36,418,181.07,418s12.88-6,12.88-14.95S188.78,388.1,181.07,388.1Z" transform="translate(-88.11 -81.15)"/><path d="M243.86,370.62c16.45,0,26.32,8.93,26.32,22.37s-9.87,22.37-26.32,22.37H240v18.8a1.46,1.46,0,0,1-1.5,1.32H221.68a1.42,1.42,0,0,1-1.32-1.32V372a1.43,1.43,0,0,1,1.32-1.41h22.18Zm0.85,27.92a5.55,5.55,0,0,0,0-11.09h-4.89v11.09h4.89Z" transform="translate(-88.11 -81.15)"/><path d="M297.63,370.62c16.45,0,26.32,8.93,26.32,22.37s-9.87,22.37-26.32,22.37h-3.85v18.8a1.46,1.46,0,0,1-1.5,1.32H275.45a1.42,1.42,0,0,1-1.32-1.32V372a1.43,1.43,0,0,1,1.32-1.41h22.18Zm0.85,27.92a5.55,5.55,0,0,0,0-11.09h-4.89v11.09h4.89Z" transform="translate(-88.11 -81.15)"/><path d="M345.85,370.62a1.38,1.38,0,0,1,1.41,1.41v62.13a1.37,1.37,0,0,1-1.41,1.32H329.21a1.42,1.42,0,0,1-1.32-1.32V372a1.43,1.43,0,0,1,1.32-1.41h16.64Z" transform="translate(-88.11 -81.15)"/><path d="M399.05,418.56a1.36,1.36,0,0,1,1.41,1.22v14.38a1.43,1.43,0,0,1-1.41,1.32H355.35a1.91,1.91,0,0,1-1.5-1.41V371.93a1.19,1.19,0,0,1,1.32-1.32h42.77a1.46,1.46,0,0,1,1.5,1.32v14.19a1.41,1.41,0,0,1-1.5,1.41H373.39V395h19.93a1.13,1.13,0,0,1,1.22,1.22l-1.32,13.16a1.65,1.65,0,0,1-1.6,1.22H373.39v8h25.66Z" transform="translate(-88.11 -81.15)"/><path d="M90.86,445.46H88.62v-3.11h2.24v-0.73a4.36,4.36,0,0,1,4.56-4.7,5.75,5.75,0,0,1,2.58.56l-0.73,2.58a2,2,0,0,0-1.15-.34,1.66,1.66,0,0,0-1.68,1.9v0.73h2.74v3.11H94.44v10.42H90.86V445.46Zm8-7a2.13,2.13,0,1,1,2.13,2.13A2.15,2.15,0,0,1,98.87,438.49Zm0.36,3.86h3.56v13.52H99.23V442.35Z" transform="translate(-88.11 -81.15)"/><path d="M115.44,447.7a2.19,2.19,0,0,0-2.49-2.52,3.85,3.85,0,0,0-3.08,1.6v9.1h-3.56V442.35h3.56v1.76a6.19,6.19,0,0,1,4.73-2.1c3,0,4.4,1.68,4.4,4.31v9.55h-3.56V447.7Z" transform="translate(-88.11 -81.15)"/><path d="M131.82,454.14a5.25,5.25,0,0,1-4.17,2.07c-3.42,0-6-2.58-6-7.08s2.55-7.11,6-7.11a5.21,5.21,0,0,1,4.17,2.07V437.2h3.58v18.68h-3.58v-1.74Zm0-7.42a3.87,3.87,0,0,0-3.08-1.54c-2,0-3.42,1.6-3.42,3.95s1.4,3.92,3.42,3.92a3.87,3.87,0,0,0,3.08-1.54v-4.79Z" transform="translate(-88.11 -81.15)"/><path d="M147.28,458.2a1.79,1.79,0,0,0,1.88-1l0.5-1.15-5.49-13.72H148l3.53,9.41,3.53-9.41h3.84l-6.36,15.74c-1,2.55-2.8,3.22-5.12,3.28a9.77,9.77,0,0,1-1.76-.2l0.53-3.19A3.06,3.06,0,0,0,147.28,458.2Z" transform="translate(-88.11 -81.15)"/><path d="M159.6,449.1a7.15,7.15,0,1,1,7.14,7.11A6.85,6.85,0,0,1,159.6,449.1Zm10.61,0c0-2.1-1.26-3.92-3.47-3.92s-3.44,1.82-3.44,3.92,1.23,3.95,3.44,3.95S170.21,451.23,170.21,449.1Z" transform="translate(-88.11 -81.15)"/><path d="M185.67,454.17a6.33,6.33,0,0,1-4.76,2c-3,0-4.37-1.62-4.37-4.26v-9.6h3.56v8.2a2.17,2.17,0,0,0,2.49,2.49,4,4,0,0,0,3.08-1.54v-9.16h3.56v13.52h-3.56v-1.71Z" transform="translate(-88.11 -81.15)"/><path d="M192.75,442.35h3.56v1.85a5.79,5.79,0,0,1,4.31-2.16v3.47a4.37,4.37,0,0,0-4.31,1.43v8.93h-3.56V442.35Z" transform="translate(-88.11 -81.15)"/><path d="M210,437.2h3.56v18.68H210V437.2Z" transform="translate(-88.11 -81.15)"/><path d="M216.21,449.1a7.15,7.15,0,1,1,7.14,7.11A6.85,6.85,0,0,1,216.21,449.1Zm10.61,0c0-2.1-1.26-3.92-3.47-3.92s-3.44,1.82-3.44,3.92,1.23,3.95,3.44,3.95S226.82,451.23,226.82,449.1Z" transform="translate(-88.11 -81.15)"/><path d="M239.45,442a6.29,6.29,0,0,1,5.35,2.44l-2.32,2.18a3.28,3.28,0,0,0-2.86-1.46,3.94,3.94,0,0,0,0,7.87,3.42,3.42,0,0,0,2.86-1.46l2.32,2.16a6.23,6.23,0,0,1-5.35,2.46A7.1,7.1,0,1,1,239.45,442Z" transform="translate(-88.11 -81.15)"/><path d="M255.24,454.48a5.6,5.6,0,0,1-4.28,1.74,4.51,4.51,0,0,1-4.7-4.48c0-3.16,2.55-4.31,4.7-4.31a5.47,5.47,0,0,1,4.28,1.65V447.2c0-1.37-1.18-2.27-3-2.27a5.69,5.69,0,0,0-3.95,1.6L247,444.15a8.87,8.87,0,0,1,5.91-2.13c3.08,0,5.91,1.23,5.91,5.12v8.74h-3.56v-1.4Zm0-3.53a3.56,3.56,0,0,0-2.86-1.18c-1.4,0-2.55.73-2.55,2s1.15,2,2.55,2a3.56,3.56,0,0,0,2.86-1.18V451Z" transform="translate(-88.11 -81.15)"/><path d="M262.33,437.2h3.56v18.68h-3.56V437.2Z" transform="translate(-88.11 -81.15)"/><path d="M276.58,437.2h3.56v6.89a5.21,5.21,0,0,1,4.17-2.07c3.44,0,6,2.69,6,7.11s-2.58,7.08-6,7.08a5.25,5.25,0,0,1-4.17-2.07v1.74h-3.56V437.2ZM283.19,453c2.07,0,3.44-1.57,3.44-3.92s-1.37-3.95-3.44-3.95a3.92,3.92,0,0,0-3.05,1.57v4.79A4,4,0,0,0,283.19,453Z" transform="translate(-88.11 -81.15)"/><path d="M293,442.35h3.56v1.85a5.78,5.78,0,0,1,4.31-2.16v3.47a4.37,4.37,0,0,0-4.31,1.43v8.93H293V442.35Z" transform="translate(-88.11 -81.15)"/><path d="M309.2,442c4,0,6.78,3,6.78,7.45v0.78H305.92a3.64,3.64,0,0,0,3.89,3.14,5.53,5.53,0,0,0,3.61-1.34l1.57,2.3a8.44,8.44,0,0,1-5.57,1.88A7.1,7.1,0,1,1,309.2,442Zm-3.33,5.82h6.66a3.13,3.13,0,0,0-3.33-3A3.25,3.25,0,0,0,305.87,447.84Z" transform="translate(-88.11 -81.15)"/><path d="M327.57,446.67l-2.86,9.21H320.9l-4.12-13.52h3.7l2.52,9.1,3-9.1h3.16l3,9.1,2.52-9.1h3.7l-4.12,13.52h-3.78Z" transform="translate(-88.11 -81.15)"/><path d="M347.62,451.62a7.74,7.74,0,0,0,4.68,1.85c1.54,0,2.27-.53,2.27-1.37s-1.18-1.29-2.72-1.6c-2.32-.45-5.32-1-5.32-4.23,0-2.27,2-4.26,5.54-4.26a8.64,8.64,0,0,1,5.46,1.85l-1.43,2.44a5.71,5.71,0,0,0-4-1.57c-1.29,0-2.13.48-2.13,1.26s1.06,1.15,2.58,1.46c2.32,0.45,5.43,1.06,5.43,4.42,0,2.46-2.1,4.34-5.85,4.34a9.1,9.1,0,0,1-6-2.1Z" transform="translate(-88.11 -81.15)"/><path d="M360.61,461V442.35h3.56v1.71a5.23,5.23,0,0,1,4.17-2c3.47,0,6,2.58,6,7.08s-2.52,7.11-6,7.11a5.17,5.17,0,0,1-4.17-2.07V461h-3.56Zm6.61-15.85a4,4,0,0,0-3.05,1.54v4.79a4.07,4.07,0,0,0,3.05,1.54c2,0,3.42-1.6,3.42-3.95S369.26,445.18,367.22,445.18Z" transform="translate(-88.11 -81.15)"/><path d="M376.12,449.1a7.15,7.15,0,1,1,7.14,7.11A6.85,6.85,0,0,1,376.12,449.1Zm10.61,0c0-2.1-1.26-3.92-3.47-3.92s-3.44,1.82-3.44,3.92S381,453,383.26,453,386.73,451.23,386.73,449.1Z" transform="translate(-88.11 -81.15)"/><path d="M393.76,452.52v-7.06h-2.24v-3.11h2.24v-3.7h3.58v3.7h2.74v3.11h-2.74v6.1a1.3,1.3,0,0,0,1.23,1.48,1.94,1.94,0,0,0,1.23-.39l0.76,2.69a4.39,4.39,0,0,1-3,.87C395.1,456.21,393.76,454.93,393.76,452.52Z" transform="translate(-88.11 -81.15)"/></svg>