<svg id="Layer_1" data-name="Layer 1" xmlns="http://www.w3.org/2000/svg" viewBox="0 0 424.82 372.66"><defs><style>.cls-1{fill:#d5d8d2;}.cls-2{fill:#ecedeb;}.cls-3{fill:#fc3;}.cls-11,.cls-4{fill:#fff;}.cls-4{opacity:0.5;}.cls-5{fill:none;stroke:#e2ad27;stroke-linecap:round;stroke-width:10px;}.cls-11,.cls-5{stroke-miterlimit:10;}.cls-6{fill:#f9f0d9;}.cls-10,.cls-7{fill:#41443e;}.cls-8{fill:#f492a6;}.cls-9{fill:#e2ad27;}.cls-10{opacity:0.05;}.cls-11{stroke:#000;}</style></defs><title>hoppieBAC</title><path id="_Path_" data-name="&lt;Path&gt;" class="cls-1" d="M196.55,475.94H148.06V459.71h48.48a4.06,4.06,0,0,0,4.06-4.06V378.32a4.06,4.06,0,0,0-4.06-4.06H165.4V358h31.15a20.32,20.32,0,0,1,20.29,20.29v77.33A20.32,20.32,0,0,1,196.55,475.94Z" transform="translate(-19.44 -146.48)"/><path id="_Rectangle_" data-name="&lt;Rectangle&gt;" class="cls-2" d="M18,164.74H135.64a14.89,14.89,0,0,1,14.89,14.89V335.45a37.22,37.22,0,0,1-37.22,37.22h-73A37.22,37.22,0,0,1,3.11,335.45V179.62A14.89,14.89,0,0,1,18,164.74Z"/><path id="_Rectangle_2" data-name="&lt;Rectangle&gt;" class="cls-3" d="M8.88,349.93H161.32a22.33,22.33,0,0,1,22.33,22.33v78.41A22.33,22.33,0,0,1,161.32,473H8.88a0,0,0,0,1,0,0V349.93A0,0,0,0,1,8.88,349.93Z" transform="translate(488.29 168.73) rotate(90)"/><path id="_Path_2" data-name="&lt;Path&gt;" class="cls-4" d="M42.67,500V318.86a7.65,7.65,0,0,1,7.65-7.65H34a7.65,7.65,0,0,0-7.65,7.65V500a19.13,19.13,0,0,0,19.13,19.13H61.8A19.13,19.13,0,0,1,42.67,500Z" transform="translate(-19.44 -146.48)"/><line id="_Path_3" data-name="&lt;Path&gt;" class="cls-5" x1="76.82" y1="302.28" x2="76.82" y2="329.46"/><line id="_Path_4" data-name="&lt;Path&gt;" class="cls-5" x1="110.38" y1="302.28" x2="110.38" y2="329.46"/><line id="_Path_5" data-name="&lt;Path&gt;" class="cls-5" x1="43.26" y1="302.28" x2="43.26" y2="329.46"/><circle id="_Path_6" data-name="&lt;Path&gt;" class="cls-6" cx="15.29" cy="166.15" r="15.29"/><rect id="_Rectangle_3" data-name="&lt;Rectangle&gt;" class="cls-6" x="15.29" y="143.66" width="123.07" height="37.77"/><circle id="_Path_7" data-name="&lt;Path&gt;" class="cls-6" cx="30.79" cy="143.66" r="15.5"/><circle id="_Path_8" data-name="&lt;Path&gt;" class="cls-6" cx="62.51" cy="137.41" r="21.76"/><circle id="_Path_9" data-name="&lt;Path&gt;" class="cls-6" cx="93.11" cy="140.09" r="19.08"/><circle id="_Path_10" data-name="&lt;Path&gt;" class="cls-6" cx="106.05" cy="146.23" r="12.94"/><circle id="_Path_11" data-name="&lt;Path&gt;" class="cls-6" cx="125.42" cy="143.66" r="12.94"/><path id="_Path_12" data-name="&lt;Path&gt;" class="cls-7" d="M123.61,387.58c0,4,3.24,3.18,7.24,3.18s7.24,0.82,7.24-3.18A7.24,7.24,0,0,0,123.61,387.58Z" transform="translate(-19.44 -146.48)"/><circle id="_Path_13" data-name="&lt;Path&gt;" class="cls-6" cx="85.75" cy="225.42" r="9.6"/><rect id="_Rectangle_4" data-name="&lt;Rectangle&gt;" class="cls-6" x="76.15" y="174.28" width="19.21" height="51.15"/><path id="_Path_14" data-name="&lt;Path&gt;" class="cls-7" d="M68.92,387.58c0,4-3.24,3.18-7.24,3.18s-7.24.82-7.24-3.18A7.24,7.24,0,0,1,68.92,387.58Z" transform="translate(-19.44 -146.48)"/><path id="_Path_15" data-name="&lt;Path&gt;" class="cls-8" d="M112.55,405.54c0,4.33-7.29,16-16.29,16S80,409.87,80,405.54s7.29-7.83,16.29-7.83S112.55,401.22,112.55,405.54Z" transform="translate(-19.44 -146.48)"/><circle id="_Path_16" data-name="&lt;Path&gt;" class="cls-9" cx="111.41" cy="257.69" r="5.43"/><circle id="_Path_17" data-name="&lt;Path&gt;" class="cls-9" cx="42.24" cy="257.69" r="5.43"/><path id="_Path_18" data-name="&lt;Path&gt;" class="cls-10" d="M162.32,311.21H120.08a7.65,7.65,0,0,1,7.65,7.65V500a19.13,19.13,0,0,1-19.13,19.13h42.24A19.13,19.13,0,0,0,170,500V318.86A7.65,7.65,0,0,0,162.32,311.21Z" transform="translate(-19.44 -146.48)"/><circle id="_Path_19" data-name="&lt;Path&gt;" class="cls-6" cx="138.36" cy="167.98" r="13.45"/><path id="_Path_20" data-name="&lt;Path&gt;" class="cls-6" d="M99.32,395.58a3.57,3.57,0,0,0-3.06,1.9,3.57,3.57,0,0,0-3.06-1.9,4,4,0,0,0,0,7.9,3.57,3.57,0,0,0,3.06-1.9,3.57,3.57,0,0,0,3.06,1.9A4,4,0,0,0,99.32,395.58Z" transform="translate(-19.44 -146.48)"/><circle class="cls-11" cx="163.01" cy="150.86" r="9.29"/><circle class="cls-11" cx="192.09" cy="141.57" r="15.6"/><circle class="cls-11" cx="232.55" cy="128.16" r="20.62"/><path class="cls-11" d="M442.77,224.82a10.93,10.93,0,0,0-5.4-14.48c-0.27-.12-0.54-0.22-0.81-0.32a16.32,16.32,0,0,0-4.28-18.33,16.36,16.36,0,0,0-26.76-16.38,10.89,10.89,0,0,0-4.47-3.76,9.48,9.48,0,0,0-4.55-1h0A10.9,10.9,0,0,0,379,161.89a18.29,18.29,0,0,0-36.27,3.39c0,0.44,0,.88.07,1.32a14.46,14.46,0,0,0-25.2,9.71c0,0.28,0,.55,0,0.82h0A13.66,13.66,0,0,0,304,189.23a13.64,13.64,0,0,0-19.55,16.39,10.5,10.5,0,0,0-3.1,16.21,16.2,16.2,0,0,0,1.31,10.78,16.32,16.32,0,0,0,5,20.45,18.29,18.29,0,0,0,12.92,26.75c0,0.14,0,.27-0.06.4a10.51,10.51,0,0,0,16.5,9.66,10.5,10.5,0,0,0,14.71,2.77,10.48,10.48,0,0,0,14.06,4.81A10.5,10.5,0,0,0,363.44,296a13.63,13.63,0,0,0,15.9-2,10.92,10.92,0,0,0,17.11-7.64,16.31,16.31,0,0,0,16.36-5.69,10.88,10.88,0,0,0,13.38-5.36A13.63,13.63,0,0,0,434,252.46a14.45,14.45,0,0,0,3.7-22.23c0-.07,0-0.13,0-0.2A10.87,10.87,0,0,0,442.77,224.82Z" transform="translate(-19.44 -146.48)"/><path d="M315.56,198a0.26,0.26,0,0,1,.26.38l-5.3,9.55v6.29a0.37,0.37,0,0,1-.36.34h-4.22a0.37,0.37,0,0,1-.36-0.34V208l-5.3-9.55a0.26,0.26,0,0,1,.26-0.38h5a0.63,0.63,0,0,1,.55.38l2,4.32,2-4.32a0.63,0.63,0,0,1,.55-0.38h5Z" transform="translate(-19.44 -146.48)"/><path d="M328.06,208c0,4.18-2.83,7-7.06,7s-7.06-2.78-7.06-6.94,2.83-7,7.06-7S328.06,203.84,328.06,208Zm-9.43,0a2.39,2.39,0,1,0,2.38-2.64A2.38,2.38,0,0,0,318.63,208Z" transform="translate(-19.44 -146.48)"/><path d="M341.52,201.39a0.37,0.37,0,0,1,.36.36v12.51a0.37,0.37,0,0,1-.36.34h-2.71a0.46,0.46,0,0,1-.38-0.36l-0.36-.86a5.2,5.2,0,0,1-3.84,1.58c-3.12,0-5-2-5-5.26v-7.94a0.37,0.37,0,0,1,.36-0.36h4.22a0.37,0.37,0,0,1,.36.36v7.34a1.25,1.25,0,0,0,1.27,1.37,1.91,1.91,0,0,0,1.46-.77v-7.94a0.37,0.37,0,0,1,.36-0.36h4.22Z" transform="translate(-19.44 -146.48)"/><path d="M343.42,198.63A0.56,0.56,0,0,1,344,198h2.54a0.32,0.32,0,0,1,.34.43l-1.06,3.22a0.87,0.87,0,0,1-.6.65l-1.61.34c-0.31.07-.5,0-0.48-0.22Z" transform="translate(-19.44 -146.48)"/><path d="M361.3,201.39a0.25,0.25,0,0,1,.26.34l-4.25,12.53a0.59,0.59,0,0,1-.48.34H352a0.49,0.49,0,0,1-.43-0.34l-4.27-12.53a0.24,0.24,0,0,1,.24-0.34H352a0.49,0.49,0,0,1,.46.34l1.92,6.94,1.92-6.94a0.45,0.45,0,0,1,.43-0.34h4.54Z" transform="translate(-19.44 -146.48)"/><path d="M373.66,213.25a0.28,0.28,0,0,1-.17.36,9.35,9.35,0,0,1-5,1.34c-4.25,0-7.08-2.78-7.08-6.94a6.58,6.58,0,0,1,7-7c4,0,6.34,2.57,6.34,6.94a5.46,5.46,0,0,1-.1,1.08,0.31,0.31,0,0,1-.36.29h-7.71s0,1.51,2,1.51a9.09,9.09,0,0,0,3.67-.79,0.26,0.26,0,0,1,.36.19Zm-3.7-6.41a1.59,1.59,0,0,0-1.61-1.75,1.68,1.68,0,0,0-1.8,1.75H370Z" transform="translate(-19.44 -146.48)"/><path d="M383.79,197.19a0.37,0.37,0,0,1,.36.36v4.85a3.87,3.87,0,0,1,3.1-1.34c2.88,0,4.58,1.63,4.58,4.42v8.76a0.37,0.37,0,0,1-.36.36h-4.22a0.33,0.33,0,0,1-.34-0.36v-7.54a1.25,1.25,0,0,0-1.18-1.51,1.61,1.61,0,0,0-1.58,1.34v7.71a0.37,0.37,0,0,1-.36.36h-4.22a0.37,0.37,0,0,1-.36-0.36V197.55a0.37,0.37,0,0,1,.36-0.36h4.22Z" transform="translate(-19.44 -146.48)"/><path d="M394.25,202.88a0.38,0.38,0,0,1,.12-0.46,10.07,10.07,0,0,1,5.21-1.37c4.15,0,6.07,2.18,6.07,7v6.22a0.37,0.37,0,0,1-.36.36h-3a0.39,0.39,0,0,1-.38-0.36l-0.17-.65a5.87,5.87,0,0,1-4.13,1.37,4.22,4.22,0,0,1-4.56-4.42c0-2.35,1.85-3.91,4.56-3.91a3.74,3.74,0,0,1,3.12,1.27v-1a1.68,1.68,0,0,0-1.85-1.7,6.29,6.29,0,0,0-2.88.77,0.29,0.29,0,0,1-.36-0.19Zm6.46,7.39a1.78,1.78,0,0,0-1.32-.6,0.87,0.87,0,1,0,0,1.73,1.78,1.78,0,0,0,1.32-.6v-0.53Z" transform="translate(-19.44 -146.48)"/><path d="M420.84,197.19a0.37,0.37,0,0,1,.36.34v16.71a0.37,0.37,0,0,1-.36.36h-2.71a0.48,0.48,0,0,1-.38-0.36l-0.36-.86a5.71,5.71,0,0,1-4.06,1.58c-3.79,0-6.34-2.78-6.34-7s2.54-6.94,6.34-6.94a4.78,4.78,0,0,1,2.93.91v-4.44a0.37,0.37,0,0,1,.36-0.34h4.22Zm-4.58,9.31a2,2,0,0,0-1.9-1.32c-1.32,0-2.21,1.1-2.21,2.78s0.89,2.88,2.21,2.88a2,2,0,0,0,1.9-1.32v-3Z" transform="translate(-19.44 -146.48)"/><path d="M317.36,230.19a0.33,0.33,0,0,1,.36.34l-0.26,2.33a0.39,0.39,0,0,1-.36.36h-1.54V243a0.37,0.37,0,0,1-.36.36H311a0.37,0.37,0,0,1-.36-0.36v-9.82h-1.37a0.34,0.34,0,0,1-.34-0.34v-2.33a0.35,0.35,0,0,1,.34-0.36h1.37v-2.62a0.39,0.39,0,0,1,.36-0.34l4.22-.41a0.35,0.35,0,0,1,.36.34v3h1.8Z" transform="translate(-19.44 -146.48)"/><path d="M332.07,236.79c0,4.18-2.83,7-7.06,7S318,241,318,236.81s2.83-7,7.06-7S332.07,232.64,332.07,236.79Zm-9.43,0a2.39,2.39,0,1,0,2.38-2.64A2.38,2.38,0,0,0,322.64,236.81Z" transform="translate(-19.44 -146.48)"/><path d="M347.14,236.79c0,4.18-2.83,7-7.06,7S333,241,333,236.81s2.83-7,7.06-7S347.14,232.64,347.14,236.79Zm-9.43,0a2.39,2.39,0,1,0,2.38-2.64A2.38,2.38,0,0,0,337.71,236.81Z" transform="translate(-19.44 -146.48)"/><path d="M355.32,231.2a5.13,5.13,0,0,1,3.77-1.34,3.65,3.65,0,0,1,3.58,1.9,5.22,5.22,0,0,1,4.15-1.9c3.22,0,5.11,2,5.11,5.28v7.92a0.3,0.3,0,0,1-.34.34h-4.27a0.3,0.3,0,0,1-.34-0.34v-7.2c0-1-.46-1.51-1.18-1.51a1.55,1.55,0,0,0-1.56,1.34v7.37a0.3,0.3,0,0,1-.34.34h-4.27a0.3,0.3,0,0,1-.34-0.34v-7.2c0-1-.46-1.51-1.18-1.51a1.61,1.61,0,0,0-1.58,1.34v7.37a0.3,0.3,0,0,1-.34.34h-4.27a0.3,0.3,0,0,1-.34-0.34V230.52a0.3,0.3,0,0,1,.34-0.34h2.69a0.39,0.39,0,0,1,.38.24Z" transform="translate(-19.44 -146.48)"/><path d="M385.64,230.19a0.37,0.37,0,0,1,.36.36v12.51a0.37,0.37,0,0,1-.36.34h-2.71a0.46,0.46,0,0,1-.38-0.36l-0.36-.86a5.2,5.2,0,0,1-3.84,1.58c-3.12,0-5-2-5-5.26v-7.94a0.37,0.37,0,0,1,.36-0.36H378a0.37,0.37,0,0,1,.36.36v7.34a1.25,1.25,0,0,0,1.27,1.37,1.91,1.91,0,0,0,1.46-.77v-7.94a0.37,0.37,0,0,1,.36-0.36h4.22Z" transform="translate(-19.44 -146.48)"/><path d="M399.15,242a0.34,0.34,0,0,1-.14.41,9.13,9.13,0,0,1-4.44,1.37c-4.34,0-7.22-2.78-7.22-7s2.88-7,7.22-7a9.12,9.12,0,0,1,4.44,1.37,0.34,0.34,0,0,1,.14.41l-1.39,2.93a0.28,0.28,0,0,1-.43.14A4.22,4.22,0,0,0,395,234a2.83,2.83,0,1,0,0,5.66,4.22,4.22,0,0,0,2.3-.72,0.28,0.28,0,0,1,.43.14Z" transform="translate(-19.44 -146.48)"/><path d="M405.1,226a0.37,0.37,0,0,1,.36.36v4.85a3.87,3.87,0,0,1,3.1-1.34c2.88,0,4.58,1.63,4.58,4.42V243a0.37,0.37,0,0,1-.36.36h-4.22a0.33,0.33,0,0,1-.34-0.36v-7.54A1.25,1.25,0,0,0,407,234a1.61,1.61,0,0,0-1.58,1.34V243a0.37,0.37,0,0,1-.36.36h-4.22a0.37,0.37,0,0,1-.36-0.36V226.35a0.37,0.37,0,0,1,.36-0.36h4.22Z" transform="translate(-19.44 -146.48)"/><path d="M335.3,259a0.33,0.33,0,0,1,.36.34l-0.26,2.33a0.39,0.39,0,0,1-.36.36h-1.39v9.84a0.3,0.3,0,0,1-.34.34H329a0.3,0.3,0,0,1-.34-0.34V262h-1.27a0.34,0.34,0,0,1-.34-0.34v-2.33a0.35,0.35,0,0,1,.34-0.36h1.32c0.12-2.86,1.54-4.2,4.37-4.2h2.09a0.3,0.3,0,0,1,.34.34v2.33a0.32,0.32,0,0,1-.34.36,1.31,1.31,0,0,0-1.54,1.18h1.63Z" transform="translate(-19.44 -146.48)"/><path d="M344.13,259a0.33,0.33,0,0,1,.34.34v3.12a0.33,0.33,0,0,1-.34.34H343.5a2.28,2.28,0,0,0-2,1v8a0.37,0.37,0,0,1-.36.36h-4.22a0.37,0.37,0,0,1-.36-0.36V259.35a0.37,0.37,0,0,1,.36-0.34h2.71a0.45,0.45,0,0,1,.38.36l0.36,1.06A4.09,4.09,0,0,1,343.5,259h0.62Z" transform="translate(-19.44 -146.48)"/><path d="M350.94,256.18a2.65,2.65,0,0,1-5.28,0A2.65,2.65,0,0,1,350.94,256.18Zm-0.5,2.81a0.37,0.37,0,0,1,.36.34v12.51a0.37,0.37,0,0,1-.36.36h-4.22a0.37,0.37,0,0,1-.36-0.36V259.32a0.37,0.37,0,0,1,.36-0.34h4.22Z" transform="translate(-19.44 -146.48)"/><path d="M364.36,270.85a0.28,0.28,0,0,1-.17.36,9.35,9.35,0,0,1-5,1.34c-4.25,0-7.08-2.78-7.08-6.94a6.58,6.58,0,0,1,7-7c4,0,6.34,2.57,6.34,6.94a5.46,5.46,0,0,1-.1,1.08,0.31,0.31,0,0,1-.36.29h-7.7s0,1.51,2,1.51a9.09,9.09,0,0,0,3.67-.79,0.26,0.26,0,0,1,.36.19Zm-3.7-6.41a1.59,1.59,0,0,0-1.61-1.75,1.68,1.68,0,0,0-1.8,1.75h3.41Z" transform="translate(-19.44 -146.48)"/><path d="M370.5,260a5.62,5.62,0,0,1,3.86-1.34c3.26,0,5,1.51,5,5.26v7.92a0.37,0.37,0,0,1-.36.36h-4.22a0.33,0.33,0,0,1-.34-0.36v-7.18a1.25,1.25,0,0,0-1.18-1.51,1.61,1.61,0,0,0-1.58,1.34v7.34a0.37,0.37,0,0,1-.36.36h-4.22a0.37,0.37,0,0,1-.36-0.36V259.32a0.3,0.3,0,0,1,.34-0.34h2.69a0.39,0.39,0,0,1,.38.24Z" transform="translate(-19.44 -146.48)"/><path d="M394.46,254.79a0.37,0.37,0,0,1,.36.34v16.71a0.37,0.37,0,0,1-.36.36h-2.71a0.48,0.48,0,0,1-.38-0.36L391,271a5.71,5.71,0,0,1-4.06,1.58c-3.79,0-6.34-2.78-6.34-7s2.54-6.94,6.34-6.94a4.78,4.78,0,0,1,2.93.91v-4.44a0.37,0.37,0,0,1,.36-0.34h4.22Zm-4.58,9.31a2,2,0,0,0-1.9-1.32c-1.32,0-2.21,1.1-2.21,2.78s0.89,2.88,2.21,2.88a2,2,0,0,0,1.9-1.32v-3Z" transform="translate(-19.44 -146.48)"/></svg>