<svg id="Layer_1" data-name="Layer 1" xmlns="http://www.w3.org/2000/svg" viewBox="0 0 438.81 408.29"><defs><style>.cls-1{fill:#d5d8d2;}.cls-2{fill:#ecedeb;}.cls-3{fill:#fc3;}.cls-4{fill:#fff;opacity:0.5;}.cls-5{fill:none;stroke:#e2ad27;stroke-linecap:round;stroke-miterlimit:10;stroke-width:10px;}.cls-6{fill:#f9f0d9;}.cls-10,.cls-7{fill:#41443e;}.cls-8{fill:#f492a6;}.cls-9{fill:#e2ad27;}.cls-10{opacity:0.05;}.cls-11{font-size:94px;font-family:FatFrank;}.cls-12{font-size:28px;font-family:Proxima Nova;font-weight:700;}</style></defs><title>hoppieLogo</title><path id="_Path_" data-name="&lt;Path&gt;" class="cls-1" d="M351.91,328.85H295.75V310h56.16a4.71,4.71,0,0,0,4.7-4.7V215.76a4.71,4.71,0,0,0-4.7-4.7H315.83V192.25h36.09a23.53,23.53,0,0,1,23.51,23.51v89.58A23.53,23.53,0,0,1,351.91,328.85Z" transform="translate(-25.13 -81.15)"/><path id="_Rectangle_" data-name="&lt;Rectangle&gt;" class="cls-2" d="M140.1,56.86h141A14.89,14.89,0,0,1,296,71.75V260.53a37.22,37.22,0,0,1-37.22,37.22H162.43a37.22,37.22,0,0,1-37.22-37.22V71.75A14.89,14.89,0,0,1,140.1,56.86Z"/><path id="_Rectangle_2" data-name="&lt;Rectangle&gt;" class="cls-3" d="M134.51,182.87H314.64A22.33,22.33,0,0,1,337,205.2v97.91a22.33,22.33,0,0,1-22.33,22.33H134.51a0,0,0,0,1,0,0V182.87A0,0,0,0,1,134.51,182.87Z" transform="translate(464.76 -62.73) rotate(90)"/><path id="_Path_2" data-name="&lt;Path&gt;" class="cls-4" d="M173.65,356.73V146.88a8.86,8.86,0,0,1,8.86-8.86H163.65a8.86,8.86,0,0,0-8.86,8.86V356.73a22.16,22.16,0,0,0,22.16,22.16h18.87A22.16,22.16,0,0,1,173.65,356.73Z" transform="translate(-25.13 -81.15)"/><line id="_Path_3" data-name="&lt;Path&gt;" class="cls-5" x1="210.61" y1="216.2" x2="210.61" y2="247.7"/><line id="_Path_4" data-name="&lt;Path&gt;" class="cls-5" x1="249.48" y1="216.2" x2="249.48" y2="247.7"/><line id="_Path_5" data-name="&lt;Path&gt;" class="cls-5" x1="171.73" y1="216.2" x2="171.73" y2="247.7"/><circle id="_Path_6" data-name="&lt;Path&gt;" class="cls-6" cx="139.32" cy="58.5" r="17.71"/><rect id="_Rectangle_3" data-name="&lt;Rectangle&gt;" class="cls-6" x="139.32" y="32.45" width="142.57" height="43.76"/><circle id="_Path_7" data-name="&lt;Path&gt;" class="cls-6" cx="157.28" cy="32.45" r="17.96"/><circle id="_Path_8" data-name="&lt;Path&gt;" class="cls-6" cx="194.03" cy="25.21" r="25.21"/><circle id="_Path_9" data-name="&lt;Path&gt;" class="cls-6" cx="229.48" cy="28.31" r="22.1"/><circle id="_Path_10" data-name="&lt;Path&gt;" class="cls-6" cx="244.46" cy="35.43" r="14.99"/><circle id="_Path_11" data-name="&lt;Path&gt;" class="cls-6" cx="266.91" cy="32.45" r="14.99"/><path id="_Path_12" data-name="&lt;Path&gt;" class="cls-7" d="M267.42,226.48c0,4.63,3.76,3.69,8.39,3.69s8.39,0.95,8.39-3.69A8.39,8.39,0,0,0,267.42,226.48Z" transform="translate(-25.13 -81.15)"/><circle id="_Path_13" data-name="&lt;Path&gt;" class="cls-6" cx="220.96" cy="127.17" r="11.13"/><rect id="_Rectangle_4" data-name="&lt;Rectangle&gt;" class="cls-6" x="209.83" y="67.92" width="22.25" height="59.25"/><path id="_Path_14" data-name="&lt;Path&gt;" class="cls-7" d="M204.06,226.48c0,4.63-3.76,3.69-8.39,3.69s-8.39.95-8.39-3.69A8.39,8.39,0,0,1,204.06,226.48Z" transform="translate(-25.13 -81.15)"/><path id="_Path_15" data-name="&lt;Path&gt;" class="cls-8" d="M254.61,247.3c0,5-8.45,18.48-18.87,18.48s-18.87-13.47-18.87-18.48,8.45-9.08,18.87-9.08S254.61,242.28,254.61,247.3Z" transform="translate(-25.13 -81.15)"/><circle id="_Path_16" data-name="&lt;Path&gt;" class="cls-9" cx="250.67" cy="164.56" r="6.29"/><circle id="_Path_17" data-name="&lt;Path&gt;" class="cls-9" cx="170.54" cy="164.56" r="6.29"/><path id="_Path_18" data-name="&lt;Path&gt;" class="cls-10" d="M312.27,138H263.33a8.86,8.86,0,0,1,8.86,8.86V356.73A22.16,22.16,0,0,1,250,378.89H299a22.16,22.16,0,0,0,22.16-22.16V146.88A8.86,8.86,0,0,0,312.27,138Z" transform="translate(-25.13 -81.15)"/><circle id="_Path_19" data-name="&lt;Path&gt;" class="cls-6" cx="281.89" cy="60.62" r="15.59"/><path id="_Path_20" data-name="&lt;Path&gt;" class="cls-6" d="M239.28,235.75a4.14,4.14,0,0,0-3.54,2.2,4.14,4.14,0,0,0-3.54-2.2,4.59,4.59,0,0,0,0,9.15,4.14,4.14,0,0,0,3.54-2.2,4.14,4.14,0,0,0,3.54,2.2A4.59,4.59,0,0,0,239.28,235.75Z" transform="translate(-25.13 -81.15)"/><text class="cls-11" transform="translate(59.59 354.33)">HOPPIE</text><text class="cls-12" transform="translate(63.18 374.73)">find your local brew spot</text></svg>