<?xml version="1.0" encoding="utf-8"?>
<!-- Generator: Adobe Illustrator 19.2.0, SVG Export Plug-In . SVG Version: 6.00 Build 0)  -->
<svg version="1.1" id="Layer_1" xmlns:x="&ns_extend;" xmlns:i="&ns_ai;" xmlns:graph="&ns_graphs;"
	 xmlns="http://www.w3.org/2000/svg" xmlns:xlink="http://www.w3.org/1999/xlink" x="0px" y="0px" viewBox="0 0 500 500"
	 style="enable-background:new 0 0 500 500;" xml:space="preserve">
<style type="text/css">
	.st0{fill:#D5D8D2;}
	.st1{fill:#ECEDEB;}
	.st2{fill:#FFCC33;}
	.st3{opacity:0.5;fill:#FFFFFF;}
	.st4{fill:none;stroke:#E2AD27;stroke-width:22.3296;stroke-linecap:round;stroke-miterlimit:10;}
	.st5{fill:#F9F0D9;}
	.st6{fill:#41443E;}
	.st7{fill:#F492A6;}
	.st8{fill:#E2AD27;}
	.st9{opacity:5.000000e-02;fill:#41443E;}
	.st10{fill:none;}
	.st11{stroke:#000000;stroke-miterlimit:10;}
	.st12{font-family:'FatFrank-Heavy';}
	.st13{font-size:80.7521px;}
	.st14{font-family:'ProximaNova-Bold';}
	.st15{font-size:24px;}
</style>
<metadata>
	<sfw  xmlns="&ns_sfw;">
		<slices></slices>
		<sliceSourceBounds  bottomLeftOrigin="true" height="278.3" width="313.5" x="96.4" y="-351.2"></sliceSourceBounds>
	</sfw>
</metadata>
<g>
	<path id="XMLID_24_" class="st0" d="M339.7,253.2h-40.9v-13.7h40.9c1.9,0,3.4-1.5,3.4-3.4v-65.2c0-1.9-1.5-3.4-3.4-3.4h-26.3v-13.7
		h26.3c9.4,0,17.1,7.7,17.1,17.1v65.2C356.9,245.5,349.2,253.2,339.7,253.2z"/>
	<path id="XMLID_23_" class="st1" d="M280.1,289.7h-49.9c-20.6,0-37.2-16.7-37.2-37.2V129.2c0-8.2,6.7-14.9,14.9-14.9h94.6
		c8.2,0,14.9,6.7,14.9,14.9v123.3C317.3,273,300.7,289.7,280.1,289.7z"/>
	<path id="XMLID_22_" class="st2" d="M203.2,250.2V125.1h103.8v125.1c0,12.3-10,22.3-22.3,22.3h-59.1
		C213.2,272.5,203.2,262.5,203.2,250.2z"/>
	<path id="XMLID_21_" class="st3" d="M209.9,273.5V120.7c0-3.6,2.9-6.5,6.5-6.5h-13.7c-3.6,0-6.5,2.9-6.5,6.5v152.8
		c0,8.9,7.2,16.1,16.1,16.1h13.7C217.2,289.7,209.9,282.4,209.9,273.5z"/>
	<line id="XMLID_20_" class="st4" x1="255.2" y1="230.3" x2="255.2" y2="253.2"/>
	<line id="XMLID_19_" class="st4" x1="283.5" y1="230.3" x2="283.5" y2="253.2"/>
	<line id="XMLID_18_" class="st4" x1="226.8" y1="230.3" x2="226.8" y2="253.2"/>
	<circle id="XMLID_17_" class="st5" cx="203.2" cy="115.5" r="12.9"/>
	<rect id="XMLID_16_" x="203.2" y="96.5" class="st5" width="103.8" height="31.9"/>
	<circle id="XMLID_15_" class="st5" cx="216.3" cy="96.5" r="13.1"/>
	<circle id="XMLID_14_" class="st5" cx="243.1" cy="91.2" r="18.4"/>
	<circle id="XMLID_13_" class="st5" cx="268.9" cy="93.5" r="16.1"/>
	<circle id="XMLID_12_" class="st5" cx="279.8" cy="98.7" r="10.9"/>
	<circle id="XMLID_11_" class="st5" cx="296.1" cy="96.5" r="10.9"/>
	<path id="XMLID_10_" class="st6" d="M278.2,178.7c0,3.4,2.7,2.7,6.1,2.7c3.4,0,6.1,0.7,6.1-2.7c0-3.4-2.7-6.1-6.1-6.1
		C281,172.6,278.2,175.3,278.2,178.7z"/>
	<circle id="XMLID_9_" class="st5" cx="262.7" cy="165.5" r="8.1"/>
	<rect id="XMLID_8_" x="254.6" y="122.3" class="st5" width="16.2" height="43.1"/>
	<path id="XMLID_7_" class="st6" d="M232.1,178.7c0,3.4-2.7,2.7-6.1,2.7c-3.4,0-6.1,0.7-6.1-2.7c0-3.4,2.7-6.1,6.1-6.1
		C229.4,172.6,232.1,175.3,232.1,178.7z"/>
	<path id="XMLID_6_" class="st7" d="M268.9,193.8c0,3.6-6.2,13.5-13.7,13.5c-7.6,0-13.7-9.8-13.7-13.5c0-3.6,6.2-6.6,13.7-6.6
		C262.7,187.2,268.9,190.2,268.9,193.8z"/>
	<circle id="XMLID_5_" class="st8" cx="284.3" cy="192.7" r="4.6"/>
	<circle id="XMLID_4_" class="st8" cx="226" cy="192.7" r="4.6"/>
	<path id="XMLID_3_" class="st9" d="M310.9,114.3h-35.6c3.6,0,6.5,2.9,6.5,6.5v152.8c0,8.9-7.2,16.1-16.1,16.1h35.6
		c8.9,0,16.1-7.2,16.1-16.1V120.7C317.3,117.2,314.4,114.3,310.9,114.3z"/>
	<circle id="XMLID_2_" class="st5" cx="307.1" cy="117" r="11.3"/>
	<path id="XMLID_1_" class="st5" d="M257.7,185.4c-1.1,0-2,0.7-2.6,1.6c-0.5-0.9-1.5-1.6-2.6-1.6c-1.7,0-3.1,1.5-3.1,3.3
		c0,1.8,1.4,3.3,3.1,3.3c1.1,0,2-0.7,2.6-1.6c0.5,0.9,1.5,1.6,2.6,1.6c1.7,0,3.1-1.5,3.1-3.3C260.8,186.9,259.4,185.4,257.7,185.4z"
		/>
</g>
<rect x="96.4" y="257.7" class="st10" width="313.5" height="63.4"/>
<text transform="matrix(1 0 0 1 116.7238 316.2332)" class="st11 st12 st13">HOPPIE</text>
<rect x="98.8" y="327.1" class="st10" width="309.8" height="22.7"/>
<text transform="matrix(1 0 0 1 118.181 343.0861)" class="st14 st15">find your local brew spot</text>
</svg>
